<?xml version="1.0" encoding="UTF-8" standalone="no"?>
<svg
   xmlns:dc="http://purl.org/dc/elements/1.1/"
   xmlns:cc="http://creativecommons.org/ns#"
   xmlns:rdf="http://www.w3.org/1999/02/22-rdf-syntax-ns#"
   xmlns:svg="http://www.w3.org/2000/svg"
   xmlns="http://www.w3.org/2000/svg"
   xmlns:sodipodi="http://sodipodi.sourceforge.net/DTD/sodipodi-0.dtd"
   xmlns:inkscape="http://www.inkscape.org/namespaces/inkscape"
   width="900"
   height="900"
   viewBox="0 0 675 675"
   version="1.1"
   id="svg9"
   sodipodi:docname="logo-dark.svg"
   inkscape:version="1.0.2 (e86c870879, 2021-01-15)">
  <metadata
     id="metadata15">
    <rdf:RDF>
      <cc:Work
         rdf:about="">
        <dc:format>image/svg+xml</dc:format>
        <dc:type
           rdf:resource="http://purl.org/dc/dcmitype/StillImage" />
        <dc:title></dc:title>
      </cc:Work>
    </rdf:RDF>
  </metadata>
  <defs
     id="defs13" />
  <sodipodi:namedview
     pagecolor="#ffffff"
     bordercolor="#666666"
     borderopacity="1"
     objecttolerance="10"
     gridtolerance="10"
     guidetolerance="10"
     inkscape:pageopacity="0"
     inkscape:pageshadow="2"
     inkscape:window-width="1875"
     inkscape:window-height="1080"
     id="namedview11"
     showgrid="false"
     inkscape:zoom="0.71771338"
     inkscape:cx="71.562931"
     inkscape:cy="554.99674"
     inkscape:window-x="0"
     inkscape:window-y="0"
     inkscape:window-maximized="1"
     inkscape:current-layer="svg9"
     units="px"
     inkscape:document-rotation="0" />
  <path
     style="opacity:0.5;fill:#ca3a33;fill-opacity:1;fill-rule:nonzero;stroke:#f1f1f1;stroke-width:5.99998;stroke-miterlimit:4;stroke-dasharray:none;stroke-opacity:1"
     d="m 53.920176,558.95098 c 0,12.74212 -10.335692,23.07135 -23.085765,23.07135 -12.750073,0 -23.085758,-10.32923 -23.085758,-23.07135 0,-12.74211 10.335685,-23.07134 23.085758,-23.07134 12.750073,0 23.085765,10.32923 23.085765,23.07134"
     id="path2" />
  <path
     style="opacity:0.5;fill:#389723;fill-opacity:1;fill-rule:nonzero;stroke:#f1f1f1;stroke-width:5.99998;stroke-miterlimit:4;stroke-dasharray:none;stroke-opacity:1"
     d="m 97.974136,490.95679 c 0,12.74212 -10.335685,23.07135 -23.085758,23.07135 -12.750078,0 -23.085763,-10.32923 -23.085763,-23.07135 0,-12.74211 10.335685,-23.07134 23.085763,-23.07134 12.750073,0 23.085758,10.32923 23.085758,23.07134"
     id="path4" />
  <path
     style="opacity:0.5;fill:#9457b0;fill-opacity:1;fill-rule:nonzero;stroke:#f1f1f1;stroke-width:5.99998;stroke-miterlimit:4;stroke-dasharray:none;stroke-opacity:1"
     d="m 157.15395,512.62336 c 0,12.74211 -10.33568,23.07135 -23.08576,23.07135 -12.75007,0 -23.08576,-10.32924 -23.08576,-23.07135 0,-12.74211 10.33569,-23.07135 23.08576,-23.07135 12.75008,0 23.08576,10.32924 23.08576,23.07135"
     id="path6" />
  <path
     style="opacity:0.5;fill:#ca3a33;fill-opacity:1;fill-rule:nonzero;stroke:#f1f1f1;stroke-width:5.99998;stroke-miterlimit:4;stroke-dasharray:none;stroke-opacity:1"
     d="m 197.56493,435.90451 c 0,12.74211 -10.33569,23.07134 -23.08576,23.07134 -12.75008,0 -23.08576,-10.32923 -23.08576,-23.07134 0,-12.74212 10.33568,-23.07136 23.08576,-23.07136 12.75007,0 23.08576,10.32924 23.08576,23.07136"
     id="path2-6" />
  <path
     style="opacity:0.5;fill:#389723;fill-opacity:1;fill-rule:nonzero;stroke:#f1f1f1;stroke-width:5.99998;stroke-miterlimit:4;stroke-dasharray:none;stroke-opacity:1"
     d="m 261.88012,430.45041 c 0,12.74211 -10.33568,23.07134 -23.08575,23.07134 -12.75007,0 -23.08576,-10.32923 -23.08576,-23.07134 0,-12.74212 10.33569,-23.07135 23.08576,-23.07135 12.75007,0 23.08575,10.32923 23.08575,23.07135"
     id="path4-7" />
  <path
     style="opacity:0.5;fill:#9457b0;fill-opacity:1;fill-rule:nonzero;stroke:#f1f1f1;stroke-width:5.99998;stroke-miterlimit:4;stroke-dasharray:none;stroke-opacity:1"
     d="m 286.5172,347.95417 c 0,12.74211 -10.33568,23.07135 -23.08576,23.07135 -12.75007,0 -23.08576,-10.32924 -23.08576,-23.07135 0,-12.74212 10.33569,-23.07135 23.08576,-23.07135 12.75008,0 23.08576,10.32923 23.08576,23.07135"
     id="path6-5" />
  <path
     style="opacity:0.5;fill:#ca3a33;fill-opacity:1;fill-rule:nonzero;stroke:#f1f1f1;stroke-width:5.99998;stroke-miterlimit:4;stroke-dasharray:none;stroke-opacity:1"
     d="m 340.86175,413.44517 c 0,12.74211 -10.33568,23.07135 -23.08575,23.07135 -12.75007,0 -23.08576,-10.32924 -23.08576,-23.07135 0,-12.74212 10.33569,-23.07136 23.08576,-23.07136 12.75007,0 23.08575,10.32924 23.08575,23.07136"
     id="path2-62" />
  <path
     style="opacity:0.5;fill:#389723;fill-opacity:1;fill-rule:nonzero;stroke:#f1f1f1;stroke-width:5.99998;stroke-miterlimit:4;stroke-dasharray:none;stroke-opacity:1"
     d="m 380.08239,464.52435 c 0,12.74212 -10.33568,23.07136 -23.08576,23.07136 -12.75008,0 -23.08576,-10.32924 -23.08576,-23.07136 0,-12.74211 10.33568,-23.07135 23.08576,-23.07135 12.75008,0 23.08576,10.32924 23.08576,23.07135"
     id="path4-9" />
  <path
     style="opacity:0.5;fill:#9457b0;fill-opacity:1;fill-rule:nonzero;stroke:#f1f1f1;stroke-width:5.99998;stroke-miterlimit:4;stroke-dasharray:none;stroke-opacity:1"
     d="m 410.57068,319.85912 c 0,12.74211 -10.33571,23.07135 -23.08576,23.07135 -12.75008,0 -23.08575,-10.32924 -23.08575,-23.07135 0,-12.74212 10.33567,-23.07135 23.08575,-23.07135 12.75005,0 23.08576,10.32923 23.08576,23.07135"
     id="path6-1" />
  <path
     style="fill:none;stroke:#4063d8;stroke-width:18;stroke-linecap:round;stroke-linejoin:miter;stroke-miterlimit:4;stroke-dasharray:71.9998, 71.9998;stroke-dashoffset:36;stroke-opacity:1"
     d="M 8.5823647,654.44937 C 666,72.118614 666,72.118614 666,72.118614"
     id="path893" />
  <path
     style="opacity:0.5;fill:#ca3a33;fill-opacity:1;fill-rule:nonzero;stroke:#f1f1f1;stroke-width:5.99998;stroke-miterlimit:4;stroke-dasharray:none;stroke-opacity:1"
     d="m 432.95087,232.4024 c 0,12.74211 -10.33569,23.07135 -23.08576,23.07135 -12.75007,0 -23.08576,-10.32924 -23.08576,-23.07135 0,-12.74212 10.33569,-23.07135 23.08576,-23.07135 12.75007,0 23.08576,10.32923 23.08576,23.07135"
     id="path2-7" />
  <path
     style="opacity:0.5;fill:#389723;fill-opacity:1;fill-rule:nonzero;stroke:#f1f1f1;stroke-width:5.99998;stroke-miterlimit:4;stroke-dasharray:none;stroke-opacity:1"
     d="m 492.99486,252.54241 c 0,12.74212 -10.33568,23.07135 -23.08575,23.07135 -12.75008,0 -23.08576,-10.32923 -23.08576,-23.07135 0,-12.74211 10.33568,-23.07134 23.08576,-23.07134 12.75007,0 23.08575,10.32923 23.08575,23.07134"
     id="path4-0" />
  <path
     style="opacity:0.5;fill:#9457b0;fill-opacity:1;fill-rule:nonzero;stroke:#f1f1f1;stroke-width:5.99998;stroke-miterlimit:4;stroke-dasharray:none;stroke-opacity:1"
     d="m 542.18091,294.23948 c 0,12.74212 -10.33569,23.07135 -23.08576,23.07135 -12.75007,0 -23.08576,-10.32923 -23.08576,-23.07135 0,-12.74211 10.33569,-23.07135 23.08576,-23.07135 12.75007,0 23.08576,10.32924 23.08576,23.07135"
     id="path6-9" />
  <path
     style="opacity:0.5;fill:#ca3a33;fill-opacity:1;fill-rule:nonzero;stroke:#f1f1f1;stroke-width:5.99998;stroke-miterlimit:4;stroke-dasharray:none;stroke-opacity:1"
     d="m 577.64306,229.41108 c 0,12.74212 -10.33569,23.07135 -23.08575,23.07135 -12.75012,0 -23.08581,-10.32923 -23.08581,-23.07135 0,-12.74211 10.33569,-23.07134 23.08581,-23.07134 12.75006,0 23.08575,10.32923 23.08575,23.07134"
     id="path2-3" />
  <path
     style="opacity:0.5;fill:#389723;fill-opacity:1;fill-rule:nonzero;stroke:#f1f1f1;stroke-width:5.99998;stroke-miterlimit:4;stroke-dasharray:none;stroke-opacity:1"
     d="m 639.88918,554.60953 c 0,12.74212 -10.3357,23.07135 -23.08575,23.07135 -12.75005,0 -23.08574,-10.32923 -23.08574,-23.07135 0,-12.74211 10.33569,-23.07134 23.08574,-23.07134 12.75005,0 23.08575,10.32923 23.08575,23.07134"
     id="path4-6" />
  <path
     style="opacity:0.5;fill:#9457b0;fill-opacity:1;fill-rule:nonzero;stroke:#f1f1f1;stroke-width:5.99998;stroke-miterlimit:4;stroke-dasharray:none;stroke-opacity:1"
     d="m 666,41.071335 c 0,12.742116 -10.33566,23.071351 -23.08577,23.071351 -12.75005,0 -23.08575,-10.329235 -23.08575,-23.071351 0,-12.74211 10.3357,-23.071345 23.08575,-23.071345 12.75011,0 23.08577,10.329235 23.08577,23.071345"
     id="path6-0" />
</svg>
